<svg xmlns="http://www.w3.org/2000/svg" viewBox="0 0 448 512"><path fill="#ffffff" d="M380.9 97.1C339.1 55.3 282.6 32 224.1 32 123.5 32 41.1 114.3 41.1 214.9c0 38 10 75.1 29 107.8L1 480l161.1-69.1c30.6 17 65.1 25.9 100.1 25.9 100.5 0 182.9-82.3 182.9-182.9 0-58.5-23.3-114.9-64.2-156.8zM224.1 388c-30.6 0-60.5-8.3-86.4-23.9l-6.2-3.7-95.6 40.6 40.2-93.9-3.9-6.3c-17.9-28.5-27.3-61.3-27.3-94.9 0-95.2 77.5-172.7 172.7-172.7 46.1 0 89.4 17.9 122 50.4 32.6 32.6 50.5 75.9 50.5 122 0 95.2-77.5 172.7-172.7 172.7zm101.3-138.3c-5.5-2.8-32.5-16-37.6-17.8-5.1-1.9-8.8-2.8-12.6 2.8-3.7 5.5-14.4 17.8-17.6 21.5-3.2 3.7-6.5 4.2-12 1.4-32.6-16.3-54-29.1-75.6-65.8-5.7-9.9 5.7-9.2 16.3-30.6 1.8-3.7.9-6.9-.5-9.7-1.4-2.8-12.6-30.2-17.3-41.4-4.6-11.1-9.3-9.5-12.6-9.7-3.2-.2-6.9-.2-10.6-.2s-9.7 1.4-14.8 6.9c-5.1 5.5-19.4 18.9-19.4 46s19.9 53.4 22.6 57.1c2.8 3.7 39.1 59.8 94.7 83.8 13.3 5.7 23.6 9.1 31.6 11.7 13.3 4.2 25.4 3.6 35 2.2 10.7-1.6 32.5-13.3 37.1-26.2 4.6-12.8 4.6-23.7 3.2-26.2-1.3-2.5-5.1-3.9-10.6-6.6z"/></svg>
